<svg width="377" height="231" viewBox="0 0 377 231" fill="none" xmlns="http://www.w3.org/2000/svg">
<path d="M376 214.259C237.5 52.557 165 262.247 1 180.224V1H376V214.259Z" fill="#09B83E" stroke="#09B83E"/>
<path d="M376 229C235.5 59.9655 190 268.802 1 192.612V1H376V229Z" fill="#09B83E" fill-opacity="0.5" stroke="#09B83E"/>
<path d="M234.555 125.36C232.115 125.36 230.315 124.72 229.155 123.44C228.035 122.12 227.475 120.5 227.475 118.58C227.475 117.74 227.575 116.8 227.775 115.76C227.975 114.68 228.175 113.64 228.375 112.64C228.615 111.64 228.775 111 228.855 110.72C229.175 109.32 229.475 107.94 229.755 106.58C230.035 105.22 230.175 104.12 230.175 103.28C230.175 101.24 229.455 100.22 228.015 100.22C226.975 100.22 226.055 100.74 225.255 101.78C224.455 102.78 223.815 104.1 223.335 105.74L219.255 125H210.615L214.995 104.3C215.115 103.82 215.175 103.32 215.175 102.8C215.175 101.04 214.575 100.16 213.375 100.16C212.255 100.16 211.275 100.68 210.435 101.72C209.635 102.72 208.995 104.06 208.515 105.74L204.435 125H195.795L202.155 95H210.795L210.135 98.12C212.175 95.84 214.615 94.7 217.455 94.7C220.975 94.7 223.035 96.42 223.635 99.86C225.835 96.46 228.615 94.76 231.975 94.76C234.015 94.76 235.635 95.32 236.835 96.44C238.035 97.56 238.635 99.26 238.635 101.54C238.635 102.7 238.495 104 238.215 105.44C237.935 106.84 237.535 108.56 237.015 110.6C236.695 111.84 236.395 113.06 236.115 114.26C235.875 115.42 235.755 116.34 235.755 117.02C235.755 117.82 235.935 118.44 236.295 118.88C236.655 119.32 237.275 119.54 238.155 119.54C239.355 119.54 240.315 119.12 241.035 118.28C241.755 117.4 242.475 116.06 243.195 114.26H245.715C244.235 118.66 242.515 121.62 240.555 123.14C238.635 124.62 236.635 125.36 234.555 125.36ZM251.652 125.36C248.732 125.36 246.452 124.6 244.812 123.08C243.172 121.52 242.352 119.1 242.352 115.82C242.352 113.06 242.892 110.02 243.972 106.7C245.052 103.38 246.812 100.52 249.252 98.12C251.692 95.68 254.792 94.46 258.552 94.46C262.952 94.46 265.152 96.38 265.152 100.22C265.152 102.46 264.512 104.52 263.232 106.4C261.952 108.28 260.252 109.8 258.132 110.96C256.012 112.08 253.752 112.72 251.352 112.88C251.272 113.76 251.232 114.36 251.232 114.68C251.232 118 252.472 119.66 254.952 119.66C256.072 119.66 257.272 119.36 258.552 118.76C259.832 118.16 260.992 117.4 262.032 116.48C260.952 122.4 257.492 125.36 251.652 125.36ZM251.772 110C253.292 109.96 254.712 109.46 256.032 108.5C257.392 107.54 258.472 106.32 259.272 104.84C260.112 103.32 260.532 101.74 260.532 100.1C260.532 98.46 260.032 97.64 259.032 97.64C257.632 97.64 256.232 98.92 254.832 101.48C253.472 104 252.452 106.84 251.772 110Z" fill="white"/>
<path d="M99.12 84.92H98.46C95.82 84.92 93.76 85.84 92.28 87.68C90.84 89.48 90.12 92.7 90.12 97.34C90.12 98.82 90.26 99.86 90.54 100.46C90.82 101.02 90.96 101.34 90.96 101.42C88.8 101.42 87.18 100.98 86.1 100.1C85.06 99.18 84.54 97.68 84.54 95.6C84.54 92.76 85.24 90.18 86.64 87.86C88.04 85.5 90.26 83.6 93.3 82.16C96.38 80.72 100.28 80 105 80C106.44 80 108.42 80.18 110.94 80.54C111.18 80.58 112.12 80.7 113.76 80.9C115.44 81.1 117.14 81.2 118.86 81.2C121.86 81.2 124.76 80.82 127.56 80.06C127.08 82.7 126.26 84.92 125.1 86.72C123.94 88.48 122.28 89.36 120.12 89.36C118.68 89.36 117.4 89.22 116.28 88.94C115.16 88.62 113.82 88.16 112.26 87.56C110.66 86.96 109.08 86.44 107.52 86L104.94 98H112.5L111.54 102.44H103.98L99.12 125H90.48L99.12 84.92ZM117.48 125.36C115.56 125.36 114 124.76 112.8 123.56C111.64 122.36 111.06 120.56 111.06 118.16C111.06 117.16 111.22 115.86 111.54 114.26L115.62 95H124.26L119.94 115.4C119.78 116 119.7 116.64 119.7 117.32C119.7 118.12 119.88 118.7 120.24 119.06C120.64 119.38 121.28 119.54 122.16 119.54C123.32 119.54 124.4 119.06 125.4 118.1C126.4 117.1 127.12 115.82 127.56 114.26H130.08C128.6 118.58 126.7 121.52 124.38 123.08C122.06 124.6 119.76 125.36 117.48 125.36ZM149.195 125.36C146.755 125.36 144.955 124.72 143.795 123.44C142.675 122.12 142.115 120.5 142.115 118.58C142.115 117.74 142.215 116.8 142.415 115.76C142.615 114.68 142.815 113.64 143.015 112.64C143.255 111.64 143.415 111 143.495 110.72C143.815 109.32 144.115 107.94 144.395 106.58C144.675 105.22 144.815 104.12 144.815 103.28C144.815 101.24 144.095 100.22 142.655 100.22C141.615 100.22 140.695 100.74 139.895 101.78C139.095 102.78 138.455 104.1 137.975 105.74L133.895 125H125.255L131.615 95H140.255L139.595 98.12C141.595 95.88 143.935 94.76 146.615 94.76C148.655 94.76 150.275 95.32 151.475 96.44C152.675 97.56 153.275 99.26 153.275 101.54C153.275 102.7 153.135 104 152.855 105.44C152.575 106.84 152.175 108.56 151.655 110.6C151.335 111.84 151.035 113.06 150.755 114.26C150.515 115.42 150.395 116.34 150.395 117.02C150.395 117.82 150.575 118.44 150.935 118.88C151.295 119.32 151.915 119.54 152.795 119.54C153.995 119.54 154.955 119.12 155.675 118.28C156.395 117.4 157.115 116.06 157.835 114.26H160.355C158.875 118.66 157.155 121.62 155.195 123.14C153.275 124.62 151.275 125.36 149.195 125.36ZM165.028 125.36C162.748 125.36 160.848 124.58 159.328 123.02C157.808 121.46 157.048 119.02 157.048 115.7C157.048 112.74 157.628 109.64 158.788 106.4C159.988 103.12 161.748 100.36 164.068 98.12C166.428 95.84 169.228 94.7 172.468 94.7C174.108 94.7 175.328 94.98 176.128 95.54C176.928 96.1 177.328 96.84 177.328 97.76V98L180.268 84.2L189.148 83L182.248 115.4C182.088 116 182.008 116.58 182.008 117.14C182.008 118.74 182.828 119.54 184.468 119.54C185.188 119.54 185.828 119.42 186.388 119.18C186.228 121.18 185.508 122.72 184.228 123.8C182.988 124.84 181.508 125.36 179.788 125.36C178.188 125.36 176.828 124.96 175.708 124.16C174.628 123.32 173.908 122.06 173.548 120.38C171.148 123.7 168.308 125.36 165.028 125.36ZM168.928 119.54C169.808 119.54 170.688 119.16 171.568 118.4C172.488 117.64 173.168 116.58 173.608 115.22L173.848 114.26L176.788 100.52C176.428 99.12 175.608 98.42 174.328 98.42C172.728 98.42 171.288 99.36 170.008 101.24C168.728 103.08 167.728 105.32 167.008 107.96C166.288 110.56 165.928 112.86 165.928 114.86C165.928 116.86 166.208 118.14 166.768 118.7C167.368 119.26 168.088 119.54 168.928 119.54Z" fill="#424242" fill-opacity="0.5"/>
<path fill-rule="evenodd" clip-rule="evenodd" d="M273.199 107.408L273.178 109.03L262.157 119.228L258.954 116.156L269.953 105.938L271.673 105.945L272.29 105.393C270.188 103.045 268.944 100.002 268.988 96.6971C269.086 89.3286 275.5 83.3816 283.315 83.4134C291.13 83.4453 297.385 89.4439 297.287 96.8124C297.189 104.181 290.775 110.128 282.96 110.096C279.455 110.082 276.25 108.858 273.795 106.836L273.199 107.408ZM283.261 87.5184C277.84 87.4964 273.41 91.6041 273.342 96.7148C273.274 101.826 277.594 105.969 283.015 105.991C288.435 106.013 292.866 101.905 292.934 96.7946C293.002 91.6839 288.681 87.5405 283.261 87.5184Z" fill="white"/>
<path fill-rule="evenodd" clip-rule="evenodd" d="M279.23 85.0079C272.867 87.4238 269.473 94.8967 271.688 101.615C273.902 108.332 280.92 111.852 287.283 109.436C293.646 107.02 297.04 99.5473 294.825 92.8295C292.611 86.1118 285.593 82.592 279.23 85.0079ZM286.478 106.993C281.376 108.93 275.777 106.122 274.002 100.736C272.226 95.3496 274.933 89.3878 280.035 87.4507C285.137 85.5136 290.736 88.3216 292.512 93.708C294.287 99.0945 291.58 105.056 286.478 106.993ZM280.086 91.5542L281.822 90.8953L283.916 97.2467L290.209 98.5679L289.807 100.507L282.502 98.8827L280.086 91.5542Z" fill="white"/>
</svg>
