<svg width="235" height="93" viewBox="0 0 235 93" fill="none" xmlns="http://www.w3.org/2000/svg">
<path d="M150.555 66.36C148.115 66.36 146.315 65.72 145.155 64.44C144.035 63.12 143.475 61.5 143.475 59.58C143.475 58.74 143.575 57.8 143.775 56.76C143.975 55.68 144.175 54.64 144.375 53.64C144.615 52.64 144.775 52 144.855 51.72C145.175 50.32 145.475 48.94 145.755 47.58C146.035 46.22 146.175 45.12 146.175 44.28C146.175 42.24 145.455 41.22 144.015 41.22C142.975 41.22 142.055 41.74 141.255 42.78C140.455 43.78 139.815 45.1 139.335 46.74L135.255 66H126.615L130.995 45.3C131.115 44.82 131.175 44.32 131.175 43.8C131.175 42.04 130.575 41.16 129.375 41.16C128.255 41.16 127.275 41.68 126.435 42.72C125.635 43.72 124.995 45.06 124.515 46.74L120.435 66H111.795L118.155 36H126.795L126.135 39.12C128.175 36.84 130.615 35.7 133.455 35.7C136.975 35.7 139.035 37.42 139.635 40.86C141.835 37.46 144.615 35.76 147.975 35.76C150.015 35.76 151.635 36.32 152.835 37.44C154.035 38.56 154.635 40.26 154.635 42.54C154.635 43.7 154.495 45 154.215 46.44C153.935 47.84 153.535 49.56 153.015 51.6C152.695 52.84 152.395 54.06 152.115 55.26C151.875 56.42 151.755 57.34 151.755 58.02C151.755 58.82 151.935 59.44 152.295 59.88C152.655 60.32 153.275 60.54 154.155 60.54C155.355 60.54 156.315 60.12 157.035 59.28C157.755 58.4 158.475 57.06 159.195 55.26H161.715C160.235 59.66 158.515 62.62 156.555 64.14C154.635 65.62 152.635 66.36 150.555 66.36ZM167.652 66.36C164.732 66.36 162.452 65.6 160.812 64.08C159.172 62.52 158.352 60.1 158.352 56.82C158.352 54.06 158.892 51.02 159.972 47.7C161.052 44.38 162.812 41.52 165.252 39.12C167.692 36.68 170.792 35.46 174.552 35.46C178.952 35.46 181.152 37.38 181.152 41.22C181.152 43.46 180.512 45.52 179.232 47.4C177.952 49.28 176.252 50.8 174.132 51.96C172.012 53.08 169.752 53.72 167.352 53.88C167.272 54.76 167.232 55.36 167.232 55.68C167.232 59 168.472 60.66 170.952 60.66C172.072 60.66 173.272 60.36 174.552 59.76C175.832 59.16 176.992 58.4 178.032 57.48C176.952 63.4 173.492 66.36 167.652 66.36ZM167.772 51C169.292 50.96 170.712 50.46 172.032 49.5C173.392 48.54 174.472 47.32 175.272 45.84C176.112 44.32 176.532 42.74 176.532 41.1C176.532 39.46 176.032 38.64 175.032 38.64C173.632 38.64 172.232 39.92 170.832 42.48C169.472 45 168.452 47.84 167.772 51Z" fill="white"/>
<path d="M15.12 25.92H14.46C11.82 25.92 9.76 26.84 8.28 28.68C6.84 30.48 6.12 33.7 6.12 38.34C6.12 39.82 6.26 40.86 6.54 41.46C6.82 42.02 6.96 42.34 6.96 42.42C4.8 42.42 3.18 41.98 2.1 41.1C1.06 40.18 0.54 38.68 0.54 36.6C0.54 33.76 1.24 31.18 2.64 28.86C4.04 26.5 6.26 24.6 9.3 23.16C12.38 21.72 16.28 21 21 21C22.44 21 24.42 21.18 26.94 21.54C27.18 21.58 28.12 21.7 29.76 21.9C31.44 22.1 33.14 22.2 34.86 22.2C37.86 22.2 40.76 21.82 43.56 21.06C43.08 23.7 42.26 25.92 41.1 27.72C39.94 29.48 38.28 30.36 36.12 30.36C34.68 30.36 33.4 30.22 32.28 29.94C31.16 29.62 29.82 29.16 28.26 28.56C26.66 27.96 25.08 27.44 23.52 27L20.94 39H28.5L27.54 43.44H19.98L15.12 66H6.48L15.12 25.92ZM33.48 66.36C31.56 66.36 30 65.76 28.8 64.56C27.64 63.36 27.06 61.56 27.06 59.16C27.06 58.16 27.22 56.86 27.54 55.26L31.62 36H40.26L35.94 56.4C35.78 57 35.7 57.64 35.7 58.32C35.7 59.12 35.88 59.7 36.24 60.06C36.64 60.38 37.28 60.54 38.16 60.54C39.32 60.54 40.4 60.06 41.4 59.1C42.4 58.1 43.12 56.82 43.56 55.26H46.08C44.6 59.58 42.7 62.52 40.38 64.08C38.06 65.6 35.76 66.36 33.48 66.36ZM65.1952 66.36C62.7552 66.36 60.9552 65.72 59.7952 64.44C58.6752 63.12 58.1152 61.5 58.1152 59.58C58.1152 58.74 58.2152 57.8 58.4152 56.76C58.6152 55.68 58.8152 54.64 59.0152 53.64C59.2552 52.64 59.4152 52 59.4952 51.72C59.8152 50.32 60.1152 48.94 60.3952 47.58C60.6752 46.22 60.8152 45.12 60.8152 44.28C60.8152 42.24 60.0952 41.22 58.6552 41.22C57.6152 41.22 56.6952 41.74 55.8952 42.78C55.0952 43.78 54.4552 45.1 53.9752 46.74L49.8952 66H41.2552L47.6152 36H56.2552L55.5952 39.12C57.5952 36.88 59.9352 35.76 62.6152 35.76C64.6552 35.76 66.2752 36.32 67.4752 37.44C68.6752 38.56 69.2752 40.26 69.2752 42.54C69.2752 43.7 69.1352 45 68.8552 46.44C68.5752 47.84 68.1752 49.56 67.6552 51.6C67.3352 52.84 67.0352 54.06 66.7552 55.26C66.5152 56.42 66.3952 57.34 66.3952 58.02C66.3952 58.82 66.5752 59.44 66.9352 59.88C67.2952 60.32 67.9152 60.54 68.7952 60.54C69.9952 60.54 70.9552 60.12 71.6752 59.28C72.3952 58.4 73.1152 57.06 73.8352 55.26H76.3552C74.8752 59.66 73.1552 62.62 71.1952 64.14C69.2752 65.62 67.2752 66.36 65.1952 66.36ZM81.0281 66.36C78.7481 66.36 76.8481 65.58 75.3281 64.02C73.8081 62.46 73.0481 60.02 73.0481 56.7C73.0481 53.74 73.6281 50.64 74.7881 47.4C75.9881 44.12 77.7481 41.36 80.0681 39.12C82.4281 36.84 85.2281 35.7 88.4681 35.7C90.1081 35.7 91.3281 35.98 92.1281 36.54C92.9281 37.1 93.3281 37.84 93.3281 38.76V39L96.2681 25.2L105.148 24L98.2481 56.4C98.0881 57 98.0081 57.58 98.0081 58.14C98.0081 59.74 98.8281 60.54 100.468 60.54C101.188 60.54 101.828 60.42 102.388 60.18C102.228 62.18 101.508 63.72 100.228 64.8C98.9881 65.84 97.5081 66.36 95.7881 66.36C94.1881 66.36 92.8281 65.96 91.7081 65.16C90.6281 64.32 89.9081 63.06 89.5481 61.38C87.1481 64.7 84.3081 66.36 81.0281 66.36ZM84.9281 60.54C85.8081 60.54 86.6881 60.16 87.5681 59.4C88.4881 58.64 89.1681 57.58 89.6081 56.22L89.8481 55.26L92.7881 41.52C92.4281 40.12 91.6081 39.42 90.3281 39.42C88.7281 39.42 87.2881 40.36 86.0081 42.24C84.7281 44.08 83.7281 46.32 83.0081 48.96C82.2881 51.56 81.9281 53.86 81.9281 55.86C81.9281 57.86 82.2081 59.14 82.7681 59.7C83.3681 60.26 84.0881 60.54 84.9281 60.54Z" fill="#424242" fill-opacity="0.7"/>
<path fill-rule="evenodd" clip-rule="evenodd" d="M189.199 48.4083L189.178 50.0297L178.157 60.2274L174.954 57.156L185.953 46.9377L187.673 46.9447L188.29 46.393C186.188 44.0444 184.944 41.0015 184.988 37.697C185.086 30.3285 191.5 24.3815 199.315 24.4133C207.13 24.4451 213.386 30.4437 213.287 37.8122C213.189 45.1807 206.775 51.1277 198.96 51.0959C195.455 51.0816 192.25 49.8575 189.795 47.8359L189.199 48.4083ZM199.261 28.5183C193.84 28.4962 189.41 32.604 189.342 37.7147C189.274 42.8254 193.594 46.9688 199.015 46.9909C204.435 47.013 208.866 42.9052 208.934 37.7945C209.002 32.6838 204.681 28.5404 199.261 28.5183Z" fill="white"/>
<path fill-rule="evenodd" clip-rule="evenodd" d="M195.23 26.0077C188.867 28.4235 185.473 35.8965 187.688 42.6143C189.903 49.332 196.92 52.8518 203.283 50.4359C209.646 48.02 213.04 40.5471 210.825 33.8293C208.611 27.1115 201.593 23.5918 195.23 26.0077ZM202.478 47.9931C197.376 49.9302 191.777 47.1222 190.002 41.7358C188.226 36.3493 190.933 30.3876 196.035 28.4505C201.137 26.5134 206.736 29.3214 208.512 34.7078C210.287 40.0942 207.58 46.056 202.478 47.9931ZM196.086 32.554L197.822 31.8951L199.916 38.2464L206.209 39.5676L205.807 41.5069L198.502 39.8824L196.086 32.554Z" fill="white"/>
</svg>
